$MeshFormat
4.1 0 8
$EndMeshFormat
$Entities
8 12 6 1
1 0 0 0 0 
2 0 0 10 0 
3 0 10 0 0 
4 0 10 10 0 
5 10 0 0 0 
6 10 0 10 0 
7 10 10 0 0 
8 10 10 10 0 
1 -1e-07 -1e-07 -1.000000002804313e-07 1e-07 1e-07 10.0000001 0 2 1 -2 
2 -1e-07 -1.000000002804313e-07 -1e-07 1e-07 10.0000001 1e-07 0 2 1 -3 
3 -1e-07 9.999999900000001 -1.000000002804313e-07 1e-07 10.0000001 10.0000001 0 2 3 -4 
4 -1e-07 -1.000000002804313e-07 9.999999900000001 1e-07 10.0000001 10.0000001 0 2 2 -4 
5 9.999999900000001 -1e-07 -1.000000002804313e-07 10.0000001 1e-07 10.0000001 0 2 5 -6 
6 9.999999900000001 -1.000000002804313e-07 -1e-07 10.0000001 10.0000001 1e-07 0 2 5 -7 
7 9.999999900000001 9.999999900000001 -1.000000002804313e-07 10.0000001 10.0000001 10.0000001 0 2 7 -8 
8 9.999999900000001 -1.000000002804313e-07 9.999999900000001 10.0000001 10.0000001 10.0000001 0 2 6 -8 
9 -1.000000002804313e-07 -1e-07 -1e-07 10.0000001 1e-07 1e-07 0 2 1 -5 
10 -1.000000002804313e-07 -1e-07 9.999999900000001 10.0000001 1e-07 10.0000001 0 2 2 -6 
11 -1.000000002804313e-07 9.999999900000001 -1e-07 10.0000001 10.0000001 1e-07 0 2 3 -7 
12 -1.000000002804313e-07 9.999999900000001 9.999999900000001 10.0000001 10.0000001 10.0000001 0 2 4 -8 
1 -1e-07 -1.000000002804313e-07 -1.000000002804313e-07 1e-07 10.0000001 10.0000001 0 4 -1 2 3 -4 
2 9.999999900000001 -1.000000002804313e-07 -1.000000002804313e-07 10.0000001 10.0000001 10.0000001 0 4 -5 6 7 -8 
3 -1.000000002804313e-07 -1e-07 -1.000000002804313e-07 10.0000001 1e-07 10.0000001 0 4 -9 1 10 -5 
4 -1.000000002804313e-07 9.999999900000001 -1.000000002804313e-07 10.0000001 10.0000001 10.0000001 0 4 -11 3 12 -7 
5 -1.000000002804313e-07 -1.000000002804313e-07 -1e-07 10.0000001 10.0000001 1e-07 0 4 -2 9 6 -11 
6 -1.000000002804313e-07 -1.000000002804313e-07 9.999999900000001 10.0000001 10.0000001 10.0000001 0 4 -4 10 8 -12 
1 -1.000000002804313e-07 -1.000000002804313e-07 -1.000000002804313e-07 10.0000001 10.0000001 10.0000001 0 6 -1 2 -3 4 -5 6 
$EndEntities
$Nodes
27 125 1 125
0 1 0 1
1
0 0 0
0 2 0 1
2
0 0 10
0 3 0 1
3
0 10 0
0 4 0 1
4
0 10 10
0 5 0 1
5
10 0 0
0 6 0 1
6
10 0 10
0 7 0 1
7
10 10 0
0 8 0 1
8
10 10 10
1 1 0 3
9
10
11
0 0 2.5
0 0 5
0 0 7.5
1 2 0 3
12
13
14
0 2.5 0
0 5 0
0 7.5 0
1 3 0 3
15
16
17
0 10 2.5
0 10 5
0 10 7.5
1 4 0 3
18
19
20
0 2.5 10
0 5 10
0 7.5 10
1 5 0 3
21
22
23
10 0 2.5
10 0 5
10 0 7.5
1 6 0 3
24
25
26
10 2.5 0
10 5 0
10 7.5 0
1 7 0 3
27
28
29
10 10 2.5
10 10 5
10 10 7.5
1 8 0 3
30
31
32
10 2.5 10
10 5 10
10 7.5 10
1 9 0 3
33
34
35
2.5 0 0
5 0 0
7.5 0 0
1 10 0 3
36
37
38
2.5 0 10
5 0 10
7.5 0 10
1 11 0 3
39
40
41
2.5 10 0
5 10 0
7.5 10 0
1 12 0 3
42
43
44
2.5 10 10
5 10 10
7.5 10 10
2 1 0 9
45
46
47
48
49
50
51
52
53
0 2.5 2.5
0 5 2.5
0 7.5 2.5
0 2.5 5
0 5 5
0 7.5 5
0 2.5 7.5
0 5 7.5
0 7.5 7.5
2 2 0 9
54
55
56
57
58
59
60
61
62
10 2.5 2.5
10 5 2.5
10 7.5 2.5
10 2.5 5
10 5 5
10 7.5 5
10 2.5 7.5
10 5 7.5
10 7.5 7.5
2 3 0 9
63
64
65
66
67
68
69
70
71
2.5 0 2.5
2.5 0 5
2.5 0 7.5
5 0 2.5
5 0 5
5 0 7.5
7.5 0 2.5
7.5 0 5
7.5 0 7.5
2 4 0 9
72
73
74
75
76
77
78
79
80
2.5 10 2.5
2.5 10 5
2.5 10 7.5
5 10 2.5
5 10 5
5 10 7.5
7.5 10 2.5
7.5 10 5
7.5 10 7.5
2 5 0 9
81
82
83
84
85
86
87
88
89
2.5 2.5 0
5 2.5 0
7.5 2.5 0
2.5 5 0
5 5 0
7.5 5 0
2.5 7.5 0
5 7.5 0
7.5 7.5 0
2 6 0 9
90
91
92
93
94
95
96
97
98
2.5 2.5 10
5 2.5 10
7.5 2.5 10
2.5 5 10
5 5 10
7.5 5 10
2.5 7.5 10
5 7.5 10
7.5 7.5 10
3 1 0 27
99
100
101
102
103
104
105
106
107
108
109
110
111
112
113
114
115
116
117
118
119
120
121
122
123
124
125
2.5 2.5 2.5
5 2.5 2.5
7.5 2.5 2.5
2.5 5 2.5
5 5 2.5
7.5 5 2.5
2.5 7.5 2.5
5 7.5 2.5
7.5 7.5 2.5
2.5 2.5 5
5 2.5 5
7.5 2.5 5
2.5 5 5
5 5 5
7.5 5 5
2.5 7.5 5
5 7.5 5
7.5 7.5 5
2.5 2.5 7.5
5 2.5 7.5
7.5 2.5 7.5
2.5 5 7.5
5 5 7.5
7.5 5 7.5
2.5 7.5 7.5
5 7.5 7.5
7.5 7.5 7.5
$EndNodes
$Elements
27 216 1 216
0 1 15 1
1 1 
0 2 15 1
2 2 
0 3 15 1
3 3 
0 4 15 1
4 4 
0 5 15 1
5 5 
0 6 15 1
6 6 
0 7 15 1
7 7 
0 8 15 1
8 8 
1 1 1 4
9 1 9 
10 9 10 
11 10 11 
12 11 2 
1 2 1 4
13 1 12 
14 12 13 
15 13 14 
16 14 3 
1 3 1 4
17 3 15 
18 15 16 
19 16 17 
20 17 4 
1 4 1 4
21 2 18 
22 18 19 
23 19 20 
24 20 4 
1 5 1 4
25 5 21 
26 21 22 
27 22 23 
28 23 6 
1 6 1 4
29 5 24 
30 24 25 
31 25 26 
32 26 7 
1 7 1 4
33 7 27 
34 27 28 
35 28 29 
36 29 8 
1 8 1 4
37 6 30 
38 30 31 
39 31 32 
40 32 8 
1 9 1 4
41 1 33 
42 33 34 
43 34 35 
44 35 5 
1 10 1 4
45 2 36 
46 36 37 
47 37 38 
48 38 6 
1 11 1 4
49 3 39 
50 39 40 
51 40 41 
52 41 7 
1 12 1 4
53 4 42 
54 42 43 
55 43 44 
56 44 8 
2 1 3 16
57 1 9 45 12 
58 12 45 46 13 
59 13 46 47 14 
60 14 47 15 3 
61 9 10 48 45 
62 45 48 49 46 
63 46 49 50 47 
64 47 50 16 15 
65 10 11 51 48 
66 48 51 52 49 
67 49 52 53 50 
68 50 53 17 16 
69 11 2 18 51 
70 51 18 19 52 
71 52 19 20 53 
72 53 20 4 17 
2 2 3 16
73 5 24 54 21 
74 24 25 55 54 
75 25 26 56 55 
76 26 7 27 56 
77 21 54 57 22 
78 54 55 58 57 
79 55 56 59 58 
80 56 27 28 59 
81 22 57 60 23 
82 57 58 61 60 
83 58 59 62 61 
84 59 28 29 62 
85 23 60 30 6 
86 60 61 31 30 
87 61 62 32 31 
88 62 29 8 32 
2 3 3 16
89 1 33 63 9 
90 9 63 64 10 
91 10 64 65 11 
92 11 65 36 2 
93 33 34 66 63 
94 63 66 67 64 
95 64 67 68 65 
96 65 68 37 36 
97 34 35 69 66 
98 66 69 70 67 
99 67 70 71 68 
100 68 71 38 37 
101 35 5 21 69 
102 69 21 22 70 
103 70 22 23 71 
104 71 23 6 38 
2 4 3 16
105 3 15 72 39 
106 15 16 73 72 
107 16 17 74 73 
108 17 4 42 74 
109 39 72 75 40 
110 72 73 76 75 
111 73 74 77 76 
112 74 42 43 77 
113 40 75 78 41 
114 75 76 79 78 
115 76 77 80 79 
116 77 43 44 80 
117 41 78 27 7 
118 78 79 28 27 
119 79 80 29 28 
120 80 44 8 29 
2 5 3 16
121 1 12 81 33 
122 33 81 82 34 
123 34 82 83 35 
124 35 83 24 5 
125 12 13 84 81 
126 81 84 85 82 
127 82 85 86 83 
128 83 86 25 24 
129 13 14 87 84 
130 84 87 88 85 
131 85 88 89 86 
132 86 89 26 25 
133 14 3 39 87 
134 87 39 40 88 
135 88 40 41 89 
136 89 41 7 26 
2 6 3 16
137 2 36 90 18 
138 36 37 91 90 
139 37 38 92 91 
140 38 6 30 92 
141 18 90 93 19 
142 90 91 94 93 
143 91 92 95 94 
144 92 30 31 95 
145 19 93 96 20 
146 93 94 97 96 
147 94 95 98 97 
148 95 31 32 98 
149 20 96 42 4 
150 96 97 43 42 
151 97 98 44 43 
152 98 32 8 44 
3 1 5 64
153 45 9 1 12 99 63 33 81 
154 99 63 33 81 100 66 34 82 
155 100 66 34 82 101 69 35 83 
156 101 69 35 83 54 21 5 24 
157 46 45 12 13 102 99 81 84 
158 102 99 81 84 103 100 82 85 
159 103 100 82 85 104 101 83 86 
160 104 101 83 86 55 54 24 25 
161 47 46 13 14 105 102 84 87 
162 105 102 84 87 106 103 85 88 
163 106 103 85 88 107 104 86 89 
164 107 104 86 89 56 55 25 26 
165 15 47 14 3 72 105 87 39 
166 72 105 87 39 75 106 88 40 
167 75 106 88 40 78 107 89 41 
168 78 107 89 41 27 56 26 7 
169 48 10 9 45 108 64 63 99 
170 108 64 63 99 109 67 66 100 
171 109 67 66 100 110 70 69 101 
172 110 70 69 101 57 22 21 54 
173 49 48 45 46 111 108 99 102 
174 111 108 99 102 112 109 100 103 
175 112 109 100 103 113 110 101 104 
176 113 110 101 104 58 57 54 55 
177 50 49 46 47 114 111 102 105 
178 114 111 102 105 115 112 103 106 
179 115 112 103 106 116 113 104 107 
180 116 113 104 107 59 58 55 56 
181 16 50 47 15 73 114 105 72 
182 73 114 105 72 76 115 106 75 
183 76 115 106 75 79 116 107 78 
184 79 116 107 78 28 59 56 27 
185 51 11 10 48 117 65 64 108 
186 117 65 64 108 118 68 67 109 
187 118 68 67 109 119 71 70 110 
188 119 71 70 110 60 23 22 57 
189 52 51 48 49 120 117 108 111 
190 120 117 108 111 121 118 109 112 
191 121 118 109 112 122 119 110 113 
192 122 119 110 113 61 60 57 58 
193 53 52 49 50 123 120 111 114 
194 123 120 111 114 124 121 112 115 
195 124 121 112 115 125 122 113 116 
196 125 122 113 116 62 61 58 59 
197 17 53 50 16 74 123 114 73 
198 74 123 114 73 77 124 115 76 
199 77 124 115 76 80 125 116 79 
200 80 125 116 79 29 62 59 28 
201 18 2 11 51 90 36 65 117 
202 90 36 65 117 91 37 68 118 
203 91 37 68 118 92 38 71 119 
204 92 38 71 119 30 6 23 60 
205 19 18 51 52 93 90 117 120 
206 93 90 117 120 94 91 118 121 
207 94 91 118 121 95 92 119 122 
208 95 92 119 122 31 30 60 61 
209 20 19 52 53 96 93 120 123 
210 96 93 120 123 97 94 121 124 
211 97 94 121 124 98 95 122 125 
212 98 95 122 125 32 31 61 62 
213 4 20 53 17 42 96 123 74 
214 42 96 123 74 43 97 124 77 
215 43 97 124 77 44 98 125 80 
216 44 98 125 80 8 32 62 29 
$EndElements
