$MeshFormat
4.1 0 8
$EndMeshFormat
$Entities
8 12 6 1
1 0 0 0 0 
2 0 0 10 0 
3 0 10 0 0 
4 0 10 10 0 
5 10 0 0 0 
6 10 0 10 0 
7 10 10 0 0 
8 10 10 10 0 
1 -1e-07 -1e-07 -1.000000002804313e-07 1e-07 1e-07 10.0000001 0 2 1 -2 
2 -1e-07 -1.000000002804313e-07 -1e-07 1e-07 10.0000001 1e-07 0 2 1 -3 
3 -1e-07 9.999999900000001 -1.000000002804313e-07 1e-07 10.0000001 10.0000001 0 2 3 -4 
4 -1e-07 -1.000000002804313e-07 9.999999900000001 1e-07 10.0000001 10.0000001 0 2 2 -4 
5 9.999999900000001 -1e-07 -1.000000002804313e-07 10.0000001 1e-07 10.0000001 0 2 5 -6 
6 9.999999900000001 -1.000000002804313e-07 -1e-07 10.0000001 10.0000001 1e-07 0 2 5 -7 
7 9.999999900000001 9.999999900000001 -1.000000002804313e-07 10.0000001 10.0000001 10.0000001 0 2 7 -8 
8 9.999999900000001 -1.000000002804313e-07 9.999999900000001 10.0000001 10.0000001 10.0000001 0 2 6 -8 
9 -1.000000002804313e-07 -1e-07 -1e-07 10.0000001 1e-07 1e-07 0 2 1 -5 
10 -1.000000002804313e-07 -1e-07 9.999999900000001 10.0000001 1e-07 10.0000001 0 2 2 -6 
11 -1.000000002804313e-07 9.999999900000001 -1e-07 10.0000001 10.0000001 1e-07 0 2 3 -7 
12 -1.000000002804313e-07 9.999999900000001 9.999999900000001 10.0000001 10.0000001 10.0000001 0 2 4 -8 
1 -1e-07 -1.000000002804313e-07 -1.000000002804313e-07 1e-07 10.0000001 10.0000001 0 4 -1 2 3 -4 
2 9.999999900000001 -1.000000002804313e-07 -1.000000002804313e-07 10.0000001 10.0000001 10.0000001 0 4 -5 6 7 -8 
3 -1.000000002804313e-07 -1e-07 -1.000000002804313e-07 10.0000001 1e-07 10.0000001 0 4 -9 1 10 -5 
4 -1.000000002804313e-07 9.999999900000001 -1.000000002804313e-07 10.0000001 10.0000001 10.0000001 0 4 -11 3 12 -7 
5 -1.000000002804313e-07 -1.000000002804313e-07 -1e-07 10.0000001 10.0000001 1e-07 0 4 -2 9 6 -11 
6 -1.000000002804313e-07 -1.000000002804313e-07 9.999999900000001 10.0000001 10.0000001 10.0000001 0 4 -4 10 8 -12 
1 -1.000000002804313e-07 -1.000000002804313e-07 -1.000000002804313e-07 10.0000001 10.0000001 10.0000001 0 6 -1 2 -3 4 -5 6 
$EndEntities
$Nodes
27 347 1 347
0 1 0 1
1
0 0 0
0 2 0 1
2
0 0 10
0 3 0 1
3
0 10 0
0 4 0 1
4
0 10 10
0 5 0 1
5
10 0 0
0 6 0 1
6
10 0 10
0 7 0 1
7
10 10 0
0 8 0 1
8
10 10 10
1 1 0 5
9
10
11
12
13
0 0 1.666666666666662
0 0 3.333333333333323
0 0 4.999999999999986
0 0 6.666666666666647
0 0 8.333333333333321
1 2 0 5
14
15
16
17
18
0 1.666666666666662 0
0 3.333333333333323 0
0 4.999999999999986 0
0 6.666666666666647 0
0 8.333333333333321 0
1 3 0 5
19
20
21
22
23
0 10 1.666666666666662
0 10 3.333333333333323
0 10 4.999999999999986
0 10 6.666666666666647
0 10 8.333333333333321
1 4 0 5
24
25
26
27
28
0 1.666666666666662 10
0 3.333333333333323 10
0 4.999999999999986 10
0 6.666666666666647 10
0 8.333333333333321 10
1 5 0 5
29
30
31
32
33
10 0 1.666666666666662
10 0 3.333333333333323
10 0 4.999999999999986
10 0 6.666666666666647
10 0 8.333333333333321
1 6 0 5
34
35
36
37
38
10 1.666666666666662 0
10 3.333333333333323 0
10 4.999999999999986 0
10 6.666666666666647 0
10 8.333333333333321 0
1 7 0 5
39
40
41
42
43
10 10 1.666666666666662
10 10 3.333333333333323
10 10 4.999999999999986
10 10 6.666666666666647
10 10 8.333333333333321
1 8 0 5
44
45
46
47
48
10 1.666666666666662 10
10 3.333333333333323 10
10 4.999999999999986 10
10 6.666666666666647 10
10 8.333333333333321 10
1 9 0 5
49
50
51
52
53
1.666666666666662 0 0
3.333333333333323 0 0
4.999999999999986 0 0
6.666666666666647 0 0
8.333333333333321 0 0
1 10 0 5
54
55
56
57
58
1.666666666666662 0 10
3.333333333333323 0 10
4.999999999999986 0 10
6.666666666666647 0 10
8.333333333333321 0 10
1 11 0 5
59
60
61
62
63
1.666666666666662 10 0
3.333333333333323 10 0
4.999999999999986 10 0
6.666666666666647 10 0
8.333333333333321 10 0
1 12 0 5
64
65
66
67
68
1.666666666666662 10 10
3.333333333333323 10 10
4.999999999999986 10 10
6.666666666666647 10 10
8.333333333333321 10 10
2 1 0 34
69
70
71
72
73
74
75
76
77
78
79
80
81
82
83
84
85
86
87
88
89
90
91
92
93
94
95
96
97
98
99
100
101
102
0 8.556624327025938 5.833333333333315
0 1.508426476087526 5.815109568340524
0 5.977876091177625 1.493826874925711
0 5.977876091177627 8.50617312507428
0 1.513080901435647 2.62374225284756
0 8.588713258240283 2.507062282134787
0 2.477062749977592 8.611620212026557
0 8.588713258240279 7.492937717865191
0 6.975287124464877 6.925646466622741
0 7.090255065787378 5.043163299992669
0 5.669872981077817 5.833333333333318
0 5.638129342155492 4.222204468242285
0 4.25063584221011 5.00925630026259
0 4.212660308626626 3.399105658185374
0 4.226497308103756 6.666666666666647
0 2.722221709498883 4.19900008098699
0 6.967467520581042 3.08845369074414
0 4.209213154057612 8.318012084636079
0 8.533843361939105 4.13422432325637
0 4.220429753551874 1.691750301123361
0 7.514957068082696 8.613549960618435
0 1.369493419813702 7.528831044824416
0 7.514026162858428 1.388128629544283
0 2.55562204007732 1.39278356241809
0 1.148745817404411 4.194237047101676
0 3.131019839180583 5.784344142880586
0 3.04480294263807 2.661276371112276
0 2.820285491203461 7.120763953229134
0 5.50240473580837 7.209936490538891
0 5.403312603218532 2.779068198644175
0 8.779915320718532 8.779915320718532
0 1.220084679281459 1.220084679281459
0 1.220084679281455 8.779915320718541
0 8.779915320718542 1.220084679281456
2 2 0 34
103
104
105
106
107
108
109
110
111
112
113
114
115
116
117
118
119
120
121
122
123
124
125
126
127
128
129
130
131
132
133
134
135
136
10 8.556624327025938 5.833333333333315
10 1.508426476087526 5.815109568340524
10 5.977876091177625 1.493826874925711
10 5.977876091177627 8.50617312507428
10 1.513080901435647 2.62374225284756
10 8.588713258240283 2.507062282134787
10 2.477062749977592 8.611620212026557
10 8.588713258240279 7.492937717865191
10 6.975287124464877 6.925646466622741
10 7.090255065787378 5.043163299992669
10 5.669872981077817 5.833333333333318
10 5.638129342155492 4.222204468242285
10 4.25063584221011 5.00925630026259
10 4.212660308626626 3.399105658185374
10 4.226497308103756 6.666666666666647
10 2.722221709498883 4.19900008098699
10 6.967467520581042 3.08845369074414
10 4.209213154057612 8.318012084636079
10 8.533843361939105 4.13422432325637
10 4.220429753551874 1.691750301123361
10 7.514957068082696 8.613549960618435
10 1.369493419813702 7.528831044824416
10 7.514026162858428 1.388128629544283
10 2.55562204007732 1.39278356241809
10 1.148745817404411 4.194237047101676
10 3.131019839180583 5.784344142880586
10 3.04480294263807 2.661276371112276
10 2.820285491203461 7.120763953229134
10 5.50240473580837 7.209936490538891
10 5.403312603218532 2.779068198644175
10 8.779915320718532 8.779915320718532
10 1.220084679281459 1.220084679281459
10 1.220084679281455 8.779915320718541
10 8.779915320718542 1.220084679281456
2 3 0 34
137
138
139
140
141
142
143
144
145
146
147
148
149
150
151
152
153
154
155
156
157
158
159
160
161
162
163
164
165
166
167
168
169
170
5.977876091177627 0 8.50617312507428
5.977876091177626 0 1.493826874925712
1.508426476087526 0 5.815109568340524
8.55662432702594 0 5.833333333333316
1.513080901435646 0 2.62374225284756
8.588713258240283 0 2.507062282134787
2.477062749977592 0 8.611620212026558
8.588713258240283 0 7.492937717865185
6.975287124464878 0 6.925646466622741
7.090255065787379 0 5.043163299992671
5.669872981077818 0 5.833333333333321
5.638129342155493 0 4.222204468242289
4.25063584221011 0 5.009256300262594
4.212660308626626 0 3.399105658185377
4.226497308103756 0 6.66666666666665
2.722221709498883 0 4.199000080986993
6.967467520581044 0 3.088453690744141
4.209213154057612 0 8.318012084636081
4.220429753551874 0 1.691750301123362
8.533843361939105 0 4.134224323256371
7.514957068082696 0 8.61354996061843
1.369493419813703 0 7.528831044824418
7.514026162858427 0 1.388128629544284
2.555622040077319 0 1.39278356241809
3.131019839180583 0 5.784344142880588
1.148745817404411 0 4.194237047101677
3.044802942638069 0 2.661276371112276
2.820285491203462 0 7.120763953229138
5.502404735808367 0 7.209936490538897
5.403312603218533 0 2.779068198644177
8.779915320718526 0 8.779915320718526
1.220084679281459 0 1.220084679281459
8.779915320718541 0 1.220084679281455
1.220084679281456 0 8.779915320718542
2 4 0 34
171
172
173
174
175
176
177
178
179
180
181
182
183
184
185
186
187
188
189
190
191
192
193
194
195
196
197
198
199
200
201
202
203
204
5.977876091177627 10 8.50617312507428
5.977876091177626 10 1.493826874925712
1.508426476087526 10 5.815109568340524
8.55662432702594 10 5.833333333333316
1.513080901435646 10 2.62374225284756
2.477062749977592 10 8.611620212026557
8.588713258240283 10 2.507062282134787
8.588713258240283 10 7.492937717865185
6.975287124464878 10 6.925646466622741
7.090255065787379 10 5.043163299992671
5.669872981077818 10 5.833333333333321
5.638129342155493 10 4.222204468242289
4.25063584221011 10 5.009256300262594
4.212660308626626 10 3.399105658185377
4.226497308103756 10 6.66666666666665
2.722221709498883 10 4.199000080986993
6.967467520581044 10 3.088453690744141
4.220429753551874 10 1.691750301123362
4.209213154057614 10 8.318012084636081
8.533843361939105 10 4.134224323256371
7.514957068082696 10 8.61354996061843
7.514026162858427 10 1.388128629544284
1.369493419813703 10 7.528831044824418
2.555622040077319 10 1.39278356241809
3.131019839180583 10 5.784344142880588
1.148745817404411 10 4.194237047101677
3.044802942638069 10 2.661276371112276
2.820285491203462 10 7.120763953229135
5.502404735808367 10 7.209936490538897
5.403312603218533 10 2.779068198644177
8.779915320718526 10 8.779915320718526
1.220084679281459 10 1.220084679281459
8.779915320718541 10 1.220084679281455
1.220084679281456 10 8.779915320718542
2 5 0 34
205
206
207
208
209
210
211
212
213
214
215
216
217
218
219
220
221
222
223
224
225
226
227
228
229
230
231
232
233
234
235
236
237
238
8.556624327025938 5.833333333333317 0
1.508426476087526 5.815109568340521 0
5.977876091177628 1.49382687492571 0
5.977876091177625 8.50617312507428 0
1.513080901435649 2.623742252847557 0
2.477062749977591 8.611620212026555 0
8.588713258240283 2.507062282134787 0
8.588713258240277 7.492937717865191 0
6.975287124464875 6.92564646662274 0
7.090255065787379 5.043163299992666 0
5.669872981077818 5.83333333333331 0
5.638129342155498 4.222204468242279 0
4.250635842210114 5.009256300262577 0
4.212660308626632 3.399105658185367 0
4.226497308103752 6.666666666666631 0
2.722221709498889 4.199000080986979 0
8.558140217517581 4.175037597021234 0
4.209213154057609 8.318012084636074 0
4.220429753551878 1.691750301123358 0
6.967684076365567 3.08964953793765 0
7.514957068082694 8.613549960618435 0
7.514051943308967 1.388270992305416 0
1.369493419813701 7.528831044824415 0
2.555622040077321 1.39278356241809 0
1.148745817404413 4.194237047101673 0
3.131019839180581 5.784344142880576 0
3.044802942638074 2.661276371112271 0
2.82028549120346 7.120763953229128 0
5.502404735808364 7.209936490538891 0
5.403355914375441 2.779307368082873 0
8.779915320718532 8.779915320718532 0
1.220084679281459 1.220084679281459 0
1.220084679281455 8.779915320718541 0
8.779915320718542 1.220084679281456 0
2 6 0 34
239
240
241
242
243
244
245
246
247
248
249
250
251
252
253
254
255
256
257
258
259
260
261
262
263
264
265
266
267
268
269
270
271
272
8.556624327025938 5.833333333333317 10
1.508426476087526 5.815109568340521 10
5.977876091177628 1.49382687492571 10
5.977876091177625 8.50617312507428 10
1.513080901435649 2.623742252847557 10
2.477062749977591 8.611620212026555 10
8.588713258240283 2.507062282134787 10
8.588713258240277 7.492937717865191 10
6.975287124464875 6.92564646662274 10
7.090255065787379 5.043163299992666 10
5.669872981077818 5.83333333333331 10
5.638129342155498 4.222204468242279 10
4.250635842210114 5.009256300262577 10
4.212660308626632 3.399105658185367 10
4.226497308103752 6.666666666666631 10
2.722221709498889 4.199000080986979 10
8.558140217517581 4.175037597021234 10
4.209213154057609 8.318012084636074 10
4.220429753551878 1.691750301123358 10
6.967684076365567 3.08964953793765 10
7.514957068082694 8.613549960618435 10
7.514051943308967 1.388270992305416 10
1.369493419813701 7.528831044824415 10
2.555622040077321 1.39278356241809 10
1.148745817404413 4.194237047101673 10
3.131019839180581 5.784344142880576 10
3.044802942638074 2.661276371112271 10
2.82028549120346 7.120763953229128 10
5.502404735808364 7.209936490538891 10
5.403355914375441 2.779307368082873 10
8.779915320718532 8.779915320718532 10
1.220084679281459 1.220084679281459 10
1.220084679281455 8.779915320718541 10
8.779915320718542 1.220084679281456 10
3 1 0 75
273
274
275
276
277
278
279
280
281
282
283
284
285
286
287
288
289
290
291
292
293
294
295
296
297
298
299
300
301
302
303
304
305
306
307
308
309
310
311
312
313
314
315
316
317
318
319
320
321
322
323
324
325
326
327
328
329
330
331
332
333
334
335
336
337
338
339
340
341
342
343
344
345
346
347
1.789177248233269 3.313656580636757 8.405111331791387
2.83840749243698 2.041723443735622 8.121664097145814
7.605600993746972 7.779928662029674 7.22072633531443
7.156070942246025 8.238170008999397 5.346302146506041
5.320155928035596 8.293967163071855 2.059566033166613
1.916431098943624 8.219218566102375 6.29080705608165
1.601689274861783 3.747453539402324 4.156250932619773
1.763313372404533 2.278728609447213 5.482569466267057
1.890686588884695 4.717416997584723 7.081921041888974
1.794819768352024 8.192544395266797 4.618970699062478
2.799613661988778 8.025583364812887 2.077118301710279
3.231792289420722 2.705864933101946 1.641587357349681
4.44103027485462 2.152977317500769 3.500082781932681
2.813219875986273 2.990160683786582 3.168995808715785
1.983405191443901 1.763970638408659 1.68199513315257
8.028273805487816 1.870830338789659 1.700267711883291
4.876036391625275 1.500373829467105 1.963416701899121
5.214872473384688 3.60108063147101 8.404841870838037
6.652153747329065 4.181764819990053 7.681537005743085
7.184014897180806 2.570034250846365 7.556012798462396
8.483404560619071 1.51937798837303 6.984952208122794
3.29346020018189 4.817921132925159 2.051834608459264
2.279420683485735 7.954834010217583 8.146156003469088
8.491793833064259 4.961908235212412 4.256241087644583
8.351583420255892 4.785343429275597 2.099451055313292
3.959192707824073 8.328843064135143 7.935573530708071
1.591567710949013 6.348879250014645 5.686757752129814
6.185965728128716 5.934040729737991 8.276723925238226
4.613283667546564 5.147319475129308 7.476812175481357
6.129001774584067 6.619874850491165 6.778092453788902
3.799400705111863 7.523690409390195 5.464851717036529
2.784213832340858 6.557556985775253 6.845557751654492
3.252916641282634 6.087974653921259 5.002700049457205
3.92398627263562 6.651671387177901 8.123007329533495
5.341080918991855 1.62895927146976 6.395989001314572
5.245529183855638 7.321011191153193 4.572337502485142
4.883359021327196 8.364756356834507 6.431055603591736
6.636918539437159 2.492880556302526 6.014760192873874
6.016201998612422 8.505767624906557 3.588759177358591
8.146408979100883 5.967435467514013 8.239039223061877
3.347029911659623 3.58302178901789 8.191911019376469
5.561013463100428 1.798328358594909 8.253465884127099
8.30048392532334 1.992796765151392 5.416603478389387
7.571532001813183 7.124135747405973 2.156994062368696
1.710185311923758 4.838475871444058 2.516095486419843
4.347582536401919 6.034217777457263 2.684157910866469
7.832333887442037 8.438270750193103 3.513659223224971
8.22834468753752 7.153353194621291 4.710377118016369
6.265980824965222 7.582414033700421 8.531421144285657
8.363019371477289 3.459121943877402 3.597258823834697
8.115148496615198 1.72233708197285 3.72734894808811
6.801714093863019 2.972298426194092 3.016378740183434
7.8127973339941 3.732381628967566 5.400760515607737
5.917133316607327 1.904296854866826 4.241243603377165
5.679788354038597 3.659822556830864 5.002932154743046
4.864467140545557 3.314056272316041 1.854011155717947
4.046588436179666 7.577305533438134 3.131729222519015
6.351061333867301 6.453262516094126 3.194323405514371
6.61574602225812 5.486526264851674 4.69270470469715
7.814190833909976 5.467093144056342 5.92938067539123
5.753946125685992 6.664241870447139 1.694661280706791
6.763104897770203 4.578133820935226 3.348361695979859
4.18735570149282 4.987938470644133 3.969698573294701
3.28379299714071 3.615113697603933 5.002645175411598
3.111350547546013 1.660288879516544 4.707840616891914
4.449867923070187 3.260674034631865 6.259305494901156
3.847377509411193 1.614111017601036 6.967786512249288
2.287435708752525 5.760264919936853 8.280044184461694
5.899606170664201 4.760078532731717 1.860270903590198
2.784512368469738 2.96234325311073 6.788897879488772
2.503773763973905 6.306344072384169 1.393412050980722
2.37581231890701 6.713500329991271 3.488347920560314
8.431771926099708 3.792147361564199 7.547150165080806
3.27983766125114 4.893921274802929 6.170469974111563
4.935542158752899 5.339674675400362 5.375786755137476
$EndNodes
$Elements
27 1805 1 1805
0 1 15 1
1 1 
0 2 15 1
2 2 
0 3 15 1
3 3 
0 4 15 1
4 4 
0 5 15 1
5 5 
0 6 15 1
6 6 
0 7 15 1
7 7 
0 8 15 1
8 8 
1 1 1 6
9 1 9 
10 9 10 
11 10 11 
12 11 12 
13 12 13 
14 13 2 
1 2 1 6
15 1 14 
16 14 15 
17 15 16 
18 16 17 
19 17 18 
20 18 3 
1 3 1 6
21 3 19 
22 19 20 
23 20 21 
24 21 22 
25 22 23 
26 23 4 
1 4 1 6
27 2 24 
28 24 25 
29 25 26 
30 26 27 
31 27 28 
32 28 4 
1 5 1 6
33 5 29 
34 29 30 
35 30 31 
36 31 32 
37 32 33 
38 33 6 
1 6 1 6
39 5 34 
40 34 35 
41 35 36 
42 36 37 
43 37 38 
44 38 7 
1 7 1 6
45 7 39 
46 39 40 
47 40 41 
48 41 42 
49 42 43 
50 43 8 
1 8 1 6
51 6 44 
52 44 45 
53 45 46 
54 46 47 
55 47 48 
56 48 8 
1 9 1 6
57 1 49 
58 49 50 
59 50 51 
60 51 52 
61 52 53 
62 53 5 
1 10 1 6
63 2 54 
64 54 55 
65 55 56 
66 56 57 
67 57 58 
68 58 6 
1 11 1 6
69 3 59 
70 59 60 
71 60 61 
72 61 62 
73 62 63 
74 63 7 
1 12 1 6
75 4 64 
76 64 65 
77 65 66 
78 66 67 
79 67 68 
80 68 8 
2 1 2 90
81 77 72 89 
82 71 85 91 
83 72 77 97 
84 85 71 98 
85 84 73 93 
86 70 84 93 
87 84 70 94 
88 73 84 95 
89 70 90 96 
90 94 70 96 
91 76 77 89 
92 85 74 91 
93 83 86 97 
94 88 82 98 
95 82 88 95 
96 86 83 96 
97 86 72 97 
98 71 88 98 
99 22 69 76 
100 85 78 87 
101 23 22 76 
102 78 69 87 
103 76 69 77 
104 77 69 78 
105 74 85 87 
106 20 19 74 
107 22 21 69 
108 69 21 87 
109 26 27 72 
110 24 25 75 
111 75 25 86 
112 79 78 80 
113 11 12 70 
114 71 16 88 
115 25 26 86 
116 77 78 79 
117 79 80 81 
118 81 82 84 
119 9 10 73 
120 16 15 88 
121 17 16 71 
122 21 20 87 
123 26 72 86 
124 20 74 87 
125 81 80 82 
126 80 78 85 
127 79 81 83 
128 75 86 96 
129 27 28 89 
130 12 13 90 
131 18 17 91 
132 15 14 92 
133 88 92 95 
134 11 70 93 
135 73 10 93 
136 81 84 94 
137 72 27 89 
138 70 12 90 
139 17 71 91 
140 88 15 92 
141 80 85 98 
142 77 79 97 
143 4 23 99 
144 28 4 99 
145 1 9 100 
146 14 1 100 
147 13 2 101 
148 3 18 102 
149 2 24 101 
150 19 3 102 
151 10 11 93 
152 83 81 94 
153 90 75 96 
154 84 82 95 
155 92 73 95 
156 79 83 97 
157 82 80 98 
158 18 91 102 
159 90 13 101 
160 92 14 100 
161 89 28 99 
162 9 73 100 
163 23 76 99 
164 24 75 101 
165 74 19 102 
166 83 94 96 
167 91 74 102 
168 75 90 101 
169 76 89 99 
170 73 92 100 
2 2 2 90
171 111 123 106 
172 105 125 119 
173 106 131 111 
174 119 132 105 
175 118 127 107 
176 104 127 118 
177 118 128 104 
178 107 129 118 
179 104 130 124 
180 128 130 104 
181 110 123 111 
182 119 125 108 
183 117 131 120 
184 122 132 116 
185 116 129 122 
186 120 130 117 
187 120 131 106 
188 105 132 122 
189 42 110 103 
190 119 121 112 
191 43 110 42 
192 112 121 103 
193 110 111 103 
194 111 112 103 
195 108 121 119 
196 40 108 39 
197 42 103 41 
198 103 121 41 
199 46 106 47 
200 44 109 45 
201 109 120 45 
202 113 114 112 
203 31 104 32 
204 105 122 36 
205 45 120 46 
206 111 113 112 
207 113 115 114 
208 115 118 116 
209 29 107 30 
210 36 122 35 
211 37 105 36 
212 41 121 40 
213 46 120 106 
214 40 121 108 
215 115 116 114 
216 114 119 112 
217 113 117 115 
218 109 130 120 
219 47 123 48 
220 32 124 33 
221 38 125 37 
222 35 126 34 
223 122 129 126 
224 31 127 104 
225 107 127 30 
226 115 128 118 
227 106 123 47 
228 104 124 32 
229 37 125 105 
230 122 126 35 
231 114 132 119 
232 111 131 113 
233 8 133 43 
234 48 133 8 
235 5 134 29 
236 34 134 5 
237 33 135 6 
238 7 136 38 
239 6 135 44 
240 39 136 7 
241 30 127 31 
242 117 128 115 
243 124 130 109 
244 118 129 116 
245 126 129 107 
246 113 131 117 
247 116 132 114 
248 38 136 125 
249 124 135 33 
250 126 134 34 
251 123 133 48 
252 29 134 107 
253 43 133 110 
254 44 135 109 
255 108 136 39 
256 117 130 128 
257 125 136 108 
258 109 135 124 
259 110 133 123 
260 107 134 126 
2 3 2 90
261 137 145 157 
262 153 138 159 
263 145 137 165 
264 138 153 166 
265 141 152 162 
266 152 139 162 
267 139 152 161 
268 152 141 163 
269 158 139 164 
270 139 161 164 
271 145 144 157 
272 142 153 159 
273 154 151 165 
274 150 155 166 
275 155 150 163 
276 151 154 164 
277 137 154 165 
278 155 138 166 
279 153 142 156 
280 140 146 156 
281 140 144 145 
282 140 145 146 
283 146 153 156 
284 149 147 151 
285 31 32 140 
286 55 54 143 
287 57 56 137 
288 137 56 154 
289 10 9 141 
290 29 30 142 
291 142 30 156 
292 50 51 155 
293 146 145 147 
294 146 148 153 
295 148 147 149 
296 12 11 139 
297 30 31 156 
298 51 52 138 
299 51 138 155 
300 150 149 152 
301 31 140 156 
302 32 33 144 
303 56 55 154 
304 146 147 148 
305 148 149 150 
306 55 143 154 
307 140 32 144 
308 154 143 164 
309 58 57 157 
310 13 12 158 
311 52 53 159 
312 49 50 160 
313 160 155 163 
314 139 11 162 
315 152 149 161 
316 10 141 162 
317 57 137 157 
318 138 52 159 
319 12 139 158 
320 50 155 160 
321 147 145 165 
322 153 148 166 
323 33 6 167 
324 6 58 167 
325 9 1 168 
326 1 49 168 
327 2 13 170 
328 53 5 169 
329 5 29 169 
330 54 2 170 
331 11 10 162 
332 149 151 161 
333 143 158 164 
334 150 152 163 
335 141 160 163 
336 151 147 165 
337 148 150 166 
338 13 158 170 
339 159 53 169 
340 49 160 168 
341 58 157 167 
342 141 9 168 
343 29 142 169 
344 143 54 170 
345 144 33 167 
346 161 151 164 
347 158 143 170 
348 142 159 169 
349 157 144 167 
350 160 141 168 
2 4 2 90
351 171 191 179 
352 187 192 172 
353 179 199 171 
354 172 200 187 
355 175 196 186 
356 173 195 186 
357 186 196 173 
358 186 197 175 
359 193 198 173 
360 173 198 195 
361 179 191 178 
362 177 192 187 
363 189 199 185 
364 184 200 188 
365 188 197 184 
366 185 198 189 
367 171 199 189 
368 188 200 172 
369 187 190 177 
370 174 190 180 
371 174 179 178 
372 174 180 179 
373 180 190 187 
374 183 185 181 
375 41 174 42 
376 65 176 64 
377 67 171 66 
378 171 189 66 
379 20 175 19 
380 39 177 40 
381 177 190 40 
382 60 188 61 
383 180 181 179 
384 180 187 182 
385 182 183 181 
386 40 190 41 
387 42 178 43 
388 61 172 62 
389 61 188 172 
390 184 186 183 
391 22 173 21 
392 41 190 174 
393 66 189 65 
394 180 182 181 
395 182 184 183 
396 65 189 176 
397 174 178 42 
398 189 198 176 
399 68 191 67 
400 62 192 63 
401 23 193 22 
402 59 194 60 
403 194 197 188 
404 186 195 183 
405 20 196 175 
406 173 196 21 
407 67 191 171 
408 172 192 62 
409 22 193 173 
410 60 194 188 
411 181 199 179 
412 187 200 182 
413 43 201 8 
414 8 201 68 
415 19 202 3 
416 3 202 59 
417 4 204 23 
418 63 203 7 
419 7 203 39 
420 64 204 4 
421 21 196 20 
422 183 195 185 
423 176 198 193 
424 184 197 186 
425 175 197 194 
426 185 199 181 
427 182 200 184 
428 23 204 193 
429 192 203 63 
430 59 202 194 
431 68 201 191 
432 175 202 19 
433 39 203 177 
434 176 204 64 
435 178 201 43 
436 195 198 185 
437 193 204 176 
438 177 203 192 
439 191 201 178 
440 194 202 175 
2 5 2 90
441 213 208 225 
442 207 224 226 
443 208 213 233 
444 224 207 234 
445 206 220 229 
446 220 206 230 
447 220 209 229 
448 209 220 231 
449 206 227 232 
450 230 206 232 
451 212 213 225 
452 224 211 226 
453 219 222 233 
454 223 218 234 
455 218 223 231 
456 222 219 232 
457 222 208 233 
458 207 223 234 
459 212 205 213 
460 37 205 212 
461 38 37 212 
462 213 205 214 
463 35 34 211 
464 37 36 205 
465 205 36 221 
466 61 62 208 
467 51 50 223 
468 59 60 210 
469 210 60 222 
470 16 17 206 
471 36 35 221 
472 52 51 207 
473 60 61 222 
474 213 214 215 
475 215 216 217 
476 14 15 209 
477 61 208 222 
478 214 205 221 
479 215 217 219 
480 35 211 221 
481 207 51 223 
482 215 214 216 
483 221 211 224 
484 217 218 220 
485 217 216 218 
486 214 221 224 
487 216 214 224 
488 210 222 232 
489 17 18 227 
490 53 52 226 
491 62 63 225 
492 50 49 228 
493 223 228 231 
494 16 206 229 
495 209 15 229 
496 217 220 230 
497 208 62 225 
498 206 17 227 
499 52 207 226 
500 223 50 228 
501 213 215 233 
502 216 224 234 
503 7 38 235 
504 63 7 235 
505 1 14 236 
506 49 1 236 
507 5 53 238 
508 18 3 237 
509 3 59 237 
510 34 5 238 
511 15 16 229 
512 219 217 230 
513 227 210 232 
514 220 218 231 
515 228 209 231 
516 215 219 233 
517 218 216 234 
518 53 226 238 
519 227 18 237 
520 228 49 236 
521 225 63 235 
522 38 212 235 
523 14 209 236 
524 59 210 237 
525 211 34 238 
526 219 230 232 
527 226 211 238 
528 210 227 237 
529 212 225 235 
530 209 228 236 
2 6 2 90
531 247 259 242 
532 241 260 258 
533 242 267 247 
534 258 268 241 
535 240 263 254 
536 254 264 240 
537 254 263 243 
538 243 265 254 
539 240 266 261 
540 264 266 240 
541 246 259 247 
542 258 260 245 
543 253 267 256 
544 257 268 252 
545 252 265 257 
546 256 266 253 
547 256 267 242 
548 241 268 257 
549 246 247 239 
550 47 246 239 
551 48 246 47 
552 247 248 239 
553 45 245 44 
554 47 239 46 
555 239 255 46 
556 66 242 67 
557 56 257 55 
558 64 244 65 
559 244 256 65 
560 26 240 27 
561 46 255 45 
562 57 241 56 
563 65 256 66 
564 247 249 248 
565 249 251 250 
566 24 243 25 
567 66 256 242 
568 248 255 239 
569 249 253 251 
570 45 255 245 
571 241 257 56 
572 249 250 248 
573 255 258 245 
574 251 254 252 
575 251 252 250 
576 248 258 255 
577 250 258 248 
578 244 266 256 
579 27 261 28 
580 58 260 57 
581 67 259 68 
582 55 262 54 
583 257 265 262 
584 26 263 240 
585 243 263 25 
586 251 264 254 
587 242 259 67 
588 240 261 27 
589 57 260 241 
590 257 262 55 
591 247 267 249 
592 250 268 258 
593 8 269 48 
594 68 269 8 
595 2 270 24 
596 54 270 2 
597 6 272 58 
598 28 271 4 
599 4 271 64 
600 44 272 6 
601 25 263 26 
602 253 264 251 
603 261 266 244 
604 254 265 252 
605 262 265 243 
606 249 267 253 
607 252 268 250 
608 58 272 260 
609 261 271 28 
610 262 270 54 
611 259 269 68 
612 48 269 246 
613 24 270 243 
614 64 271 244 
615 245 272 44 
616 253 266 264 
617 260 272 245 
618 244 271 261 
619 246 269 259 
620 243 270 262 
3 1 4 1185
621 273 75 274 270 
622 275 103 276 174 
623 277 61 172 208 
624 278 173 198 195 
625 279 280 94 84 
626 281 273 86 83 
627 282 197 283 175 
628 284 285 286 163 
629 287 162 286 93 
630 288 289 138 153 
631 290 291 258 292 
632 289 166 138 153 
633 293 245 292 260 
634 274 270 75 101 
635 284 294 218 220 
636 295 77 89 76 
637 296 116 297 132 
638 298 199 185 189 
639 281 79 299 81 
640 300 301 302 291 
641 297 122 105 132 
642 303 304 299 305 
643 253 301 264 306 
644 59 194 202 210 
645 307 149 147 151 
646 308 181 183 309 
647 290 292 310 291 
648 311 181 308 276 
649 312 111 123 106 
650 313 290 252 257 
651 314 257 241 268 
652 288 226 238 159 
653 315 146 156 140 
654 275 133 123 110 
655 314 154 56 257 
656 63 192 225 203 
657 275 123 269 246 
658 288 224 226 207 
659 288 238 134 169 
660 316 105 119 132 
661 275 110 123 111 
662 279 317 286 95 
663 315 140 127 104 
664 230 318 217 219 
665 280 164 274 158 
666 319 190 320 121 
667 321 179 275 199 
668 322 323 324 288 
669 321 179 199 171 
670 312 255 239 248 
671 309 185 181 183 
672 325 326 310 327 
673 321 191 275 179 
674 319 119 316 108 
675 284 328 289 223 
676 64 176 65 244 
677 297 105 36 205 
678 329 311 330 277 
679 42 174 103 178 
680 316 136 108 125 
681 283 277 219 222 
682 20 196 21 87 
683 316 213 212 205 
684 297 221 288 224 
685 317 71 206 229 
686 331 302 332 320 
687 332 113 131 117 
688 281 81 279 94 
689 333 215 233 213 
690 331 325 334 296 
691 335 336 285 327 
692 282 197 175 186 
693 251 300 301 253 
694 287 337 162 141 
695 58 272 157 260 
696 290 310 338 291 
697 339 161 337 149 
698 321 191 179 171 
699 319 316 277 187 
700 288 134 126 107 
701 281 97 79 83 
702 72 89 27 261 
703 331 308 302 276 
704 293 109 292 245 
705 313 274 314 257 
706 331 276 302 320 
707 7 136 203 235 
708 281 86 273 340 
709 324 224 288 207 
710 289 155 51 138 
711 287 162 93 141 
712 341 324 328 224 
713 275 259 201 191 
714 43 201 178 110 
715 47 123 106 246 
716 332 296 113 115 
717 340 89 72 261 
718 127 140 31 104 
719 289 51 155 223 
720 275 123 133 269 
721 280 281 96 342 
722 340 266 261 240 
723 343 283 232 227 
724 317 88 71 229 
725 300 306 253 267 
726 277 172 192 208 
727 316 297 205 105 
728 108 39 177 40 
729 42 103 110 178 
730 316 125 119 105 
731 300 291 290 301 
732 298 171 199 189 
733 344 98 317 80 
734 66 242 256 189 
735 4 99 204 271 
736 67 259 171 191 
737 340 240 72 263 
738 296 114 116 132 
739 193 99 23 76 
740 275 111 320 103 
741 345 325 315 292 
742 270 24 101 2 
743 314 56 241 257 
744 317 88 95 82 
745 296 316 297 330 
746 344 78 282 85 
747 277 188 200 172 
748 316 125 108 119 
749 300 291 312 248 
750 274 143 158 164 
751 311 319 276 320 
752 290 258 314 292 
753 275 111 103 110 
754 274 143 270 170 
755 326 166 289 153 
756 300 253 249 267 
757 300 312 321 247 
758 290 258 291 250 
759 316 212 125 105 
760 300 251 301 250 
761 275 174 276 179 
762 314 260 258 241 
763 253 300 301 306 
764 337 163 152 141 
765 334 327 335 328 
766 282 69 173 196 
767 288 211 221 126 
768 323 142 127 156 
769 329 184 186 183 
770 335 279 317 286 
771 344 80 78 85 
772 319 320 119 121 
773 312 120 239 255 
774 311 319 320 330 
775 299 304 278 77 
776 333 219 277 233 
777 188 222 194 60 
778 337 287 163 141 
779 125 136 38 235 
780 288 211 126 134 
781 278 69 77 76 
782 323 127 107 118 
783 288 169 142 159 
784 325 310 326 315 
785 343 71 98 85 
786 277 316 208 225 
787 273 75 96 90 
788 319 192 316 187 
789 303 186 195 183 
790 274 262 265 243 
791 300 249 251 250 
792 68 269 259 201 
793 283 210 194 222 
794 278 282 173 195 
795 100 168 9 1 
796 197 282 283 329 
797 290 292 307 310 
798 93 73 141 10 
799 342 274 273 96 
800 143 270 54 262 
801 293 272 157 167 
802 273 274 265 243 
803 299 79 97 77 
804 322 334 296 297 
805 158 90 13 101 
806 77 72 97 281 
807 320 308 311 330 
808 188 61 222 60 
809 121 40 190 41 
810 343 85 283 91 
811 313 340 273 254 
812 282 186 175 196 
813 282 196 173 186 
814 295 340 261 89 
815 340 261 72 240 
816 288 226 211 238 
817 274 158 101 90 
818 300 301 306 302 
819 314 145 292 157 
820 281 299 97 77 
821 274 270 101 170 
822 326 337 285 149 
823 283 188 277 222 
824 287 95 317 88 
825 287 95 88 92 
826 194 60 222 210 
827 16 206 17 71 
828 306 264 253 266 
829 320 119 121 112 
830 125 38 212 235 
831 333 330 341 316 
832 277 233 219 222 
833 313 339 290 314 
834 77 72 281 340 
835 339 149 307 151 
836 346 279 299 305 
837 278 173 193 198 
838 339 165 314 154 
839 274 314 257 154 
840 341 328 216 224 
841 280 70 96 94 
842 337 336 280 342 
843 221 36 122 35 
844 221 122 126 35 
845 274 158 143 170 
846 299 80 344 279 
847 300 306 321 302 
848 279 344 305 335 
849 288 211 226 224 
850 284 317 294 220 
851 317 98 88 82 
852 142 134 107 29 
853 297 288 126 129 
854 325 332 117 115 
855 134 211 34 238 
856 341 297 334 324 
857 295 77 340 89 
858 313 314 290 257 
859 168 236 49 1 
860 345 315 293 292 
861 306 298 256 267 
862 312 239 120 106 
863 345 312 291 248 
864 340 299 77 304 
865 193 99 204 23 
866 277 192 172 187 
867 347 305 303 308 
868 299 78 278 282 
869 312 131 111 106 
870 329 186 184 197 
871 347 302 331 308 
872 333 213 316 214 
873 307 292 314 145 
874 75 101 270 24 
875 275 174 179 178 
876 68 269 201 8 
877 280 84 93 70 
878 307 290 338 339 
879 307 147 145 165 
880 275 178 201 110 
881 307 147 310 145 
882 297 36 221 205 
883 312 239 106 246 
884 311 276 319 180 
885 298 278 295 198 
886 314 154 137 56 
887 344 279 80 317 
888 284 231 223 228 
889 313 251 254 252 
890 333 341 217 215 
891 347 332 331 302 
892 288 211 134 238 
893 297 126 221 122 
894 93 141 162 10 
895 306 298 266 256 
896 318 330 308 335 
897 75 270 243 24 
898 284 223 155 228 
899 283 188 194 197 
900 300 312 291 332 
901 284 286 287 163 
902 318 335 334 330 
903 341 297 316 330 
904 311 277 200 187 
905 283 202 102 74 
906 328 327 285 324 
907 283 210 227 237 
908 317 229 209 88 
909 318 341 335 294 
910 283 194 175 197 
911 284 229 317 220 
912 313 290 251 252 
913 300 321 306 267 
914 340 72 89 77 
915 293 315 128 104 
916 293 135 109 272 
917 319 330 316 320 
918 316 125 212 235 
919 291 258 248 250 
920 98 344 317 343 
921 295 261 340 266 
922 318 219 343 283 
923 16 229 206 71 
924 286 73 93 84 
925 100 73 9 141 
926 281 94 96 83 
927 300 247 321 267 
928 290 258 250 268 
929 64 204 176 244 
930 121 190 103 41 
931 284 294 328 218 
932 103 276 190 320 
933 297 126 122 129 
934 299 344 78 282 
935 314 241 258 268 
936 109 255 45 120 
937 279 317 95 82 
938 293 315 140 145 
939 207 138 52 159 
940 322 116 296 115 
941 167 124 135 33 
942 58 260 157 57 
943 287 88 317 209 
944 306 266 295 340 
945 287 88 209 92 
946 309 198 185 195 
947 297 205 221 214 
948 314 260 292 258 
949 326 315 310 146 
950 293 128 130 104 
951 323 142 156 153 
952 127 156 142 30 
953 335 317 294 286 
954 284 218 231 220 
955 313 264 254 251 
956 46 255 239 120 
957 56 55 257 154 
958 88 209 15 229 
959 325 291 332 327 
960 346 281 301 340 
961 337 326 338 307 
962 317 88 98 71 
963 279 337 286 336 
964 315 146 323 156 
965 283 318 344 343 
966 283 202 210 237 
967 270 2 101 170 
968 300 249 247 267 
969 312 247 239 246 
970 292 260 245 258 
971 288 207 226 159 
972 328 224 207 234 
973 300 250 291 248 
974 288 323 142 107 
975 144 124 167 33 
976 312 123 246 106 
977 142 169 134 29 
978 296 119 320 114 
979 317 206 220 229 
980 287 93 286 73 
981 296 119 316 320 
982 345 258 291 292 
983 295 204 193 99 
984 318 219 329 277 
985 318 335 344 294 
986 335 336 279 286 
987 311 330 277 316 
988 288 323 107 129 
989 50 228 155 223 
990 59 194 210 60 
991 283 210 202 194 
992 303 186 282 195 
993 274 101 75 90 
994 278 193 22 76 
995 276 190 180 174 
996 72 263 240 26 
997 340 254 240 263 
998 311 319 330 316 
999 70 11 162 139 
1000 287 141 93 73 
1001 158 101 13 170 
1002 317 80 98 82 
1003 315 323 127 156 
1004 314 165 137 154 
1005 43 178 42 110 
1006 43 133 201 110 
1007 277 61 188 172 
1008 167 33 135 6 
1009 345 258 245 255 
1010 310 292 293 315 
1011 295 244 176 204 
1012 322 334 325 296 
1013 321 298 171 199 
1014 273 86 25 263 
1015 273 265 254 243 
1016 288 107 126 129 
1017 50 155 51 223 
1018 287 160 163 141 
1019 50 160 155 228 
1020 160 228 49 236 
1021 160 49 168 236 
1022 284 160 287 228 
1023 277 172 200 187 
1024 313 264 340 254 
1025 346 347 305 304 
1026 208 192 62 172 
1027 7 136 39 203 
1028 277 192 316 225 
1029 62 208 172 61 
1030 321 309 298 199 
1031 183 311 182 181 
1032 303 329 186 183 
1033 282 78 87 85 
1034 342 274 96 90 
1035 303 195 309 183 
1036 274 270 143 262 
1037 339 314 274 154 
1038 333 316 341 214 
1039 347 335 308 330 
1040 287 95 286 317 
1041 326 285 338 327 
1042 141 100 73 287 
1043 335 286 328 285 
1044 135 44 272 6 
1045 314 145 137 165 
1046 167 135 272 6 
1047 325 117 128 115 
1048 280 281 94 96 
1049 13 170 101 2 
1050 278 22 69 76 
1051 280 158 274 90 
1052 295 204 176 193 
1053 298 304 295 278 
1054 321 275 309 199 
1055 203 108 39 177 
1056 339 165 154 151 
1057 21 196 69 87 
1058 324 288 289 207 
1059 126 211 35 34 
1060 297 214 221 224 
1061 288 138 207 159 
1062 126 134 211 34 
1063 303 309 306 302 
1064 125 212 38 37 
1065 286 95 73 84 
1066 326 149 285 148 
1067 284 289 163 155 
1068 282 87 175 74 
1069 283 227 102 237 
1070 299 80 81 79 
1071 283 74 175 202 
1072 309 195 185 183 
1073 275 110 103 178 
1074 320 302 275 276 
1075 183 311 181 308 
1076 283 102 202 237 
1077 59 210 202 237 
1078 102 74 202 19 
1079 316 213 208 225 
1080 103 190 174 41 
1081 42 41 103 174 
1082 332 275 312 111 
1083 287 100 73 92 
1084 141 100 287 168 
1085 100 9 168 141 
1086 280 164 158 139 
1087 287 168 160 141 
1088 289 207 51 223 
1089 70 139 90 12 
1090 70 11 139 12 
1091 9 141 73 10 
1092 309 199 179 181 
1093 337 326 285 338 
1094 275 133 201 269 
1095 275 178 179 191 
1096 316 192 177 203 
1097 322 324 334 297 
1098 278 173 282 69 
1099 100 236 168 1 
1100 100 14 236 1 
1101 287 100 92 236 
1102 100 14 92 236 
1103 53 226 52 159 
1104 5 134 169 29 
1105 53 238 226 159 
1106 344 294 335 317 
1107 341 324 334 328 
1108 127 30 142 107 
1109 127 31 140 156 
1110 274 154 143 164 
1111 262 154 257 55 
1112 345 332 325 291 
1113 314 145 157 137 
1114 297 36 105 122 
1115 339 342 280 164 
1116 274 143 154 262 
1117 143 54 270 170 
1118 299 279 344 305 
1119 158 90 139 12 
1120 158 13 90 12 
1121 341 216 214 224 
1122 287 168 100 236 
1123 281 81 94 83 
1124 278 69 282 78 
1125 284 231 218 223 
1126 281 86 72 97 
1127 284 231 287 209 
1128 5 169 134 238 
1129 290 307 338 310 
1130 5 238 134 34 
1131 311 180 319 187 
1132 314 157 292 260 
1133 293 157 272 260 
1134 323 127 142 107 
1135 288 221 211 224 
1136 297 126 288 221 
1137 221 126 211 35 
1138 48 123 47 246 
1139 48 133 123 269 
1140 318 333 219 277 
1141 289 155 150 163 
1142 323 156 146 153 
1143 207 138 51 52 
1144 273 86 96 75 
1145 4 204 99 23 
1146 4 28 99 271 
1147 298 256 65 244 
1148 275 178 191 201 
1149 332 347 327 291 
1150 283 91 85 74 
1151 102 3 202 237 
1152 102 202 3 19 
1153 102 18 3 237 
1154 345 292 293 109 
1155 326 147 149 148 
1156 36 37 205 105 
1157 48 269 123 246 
1158 59 237 202 3 
1159 338 285 337 336 
1160 293 32 104 124 
1161 321 259 275 191 
1162 22 21 173 69 
1163 329 188 283 197 
1164 173 69 21 196 
1165 282 175 283 74 
1166 333 213 214 215 
1167 282 78 69 87 
1168 343 230 206 232 
1169 277 318 333 330 
1170 282 69 196 87 
1171 293 109 245 272 
1172 313 273 274 265 
1173 46 120 239 106 
1174 275 320 276 103 
1175 320 103 121 190 
1176 322 323 288 129 
1177 278 69 78 77 
1178 63 225 192 62 
1179 7 38 136 235 
1180 160 284 163 155 
1181 303 186 329 282 
1182 313 339 314 274 
1183 295 193 278 76 
1184 295 278 304 77 
1185 212 105 205 37 
1186 318 217 341 294 
1187 337 286 285 163 
1188 283 102 91 74 
1189 343 206 230 220 
1190 333 214 341 215 
1191 319 121 108 177 
1192 26 25 86 263 
1193 335 294 328 286 
1194 337 163 287 286 
1195 332 320 275 111 
1196 325 315 326 323 
1197 67 68 259 191 
1198 68 201 259 191 
1199 275 201 133 110 
1200 273 274 75 90 
1201 273 270 274 243 
1202 273 75 270 243 
1203 75 243 25 24 
1204 343 283 219 232 
1205 289 51 207 138 
1206 284 209 317 229 
1207 241 157 137 314 
1208 297 129 122 116 
1209 288 134 142 169 
1210 288 142 323 153 
1211 226 207 52 159 
1212 288 159 142 153 
1213 341 297 324 224 
1214 261 99 89 28 
1215 314 56 137 241 
1216 321 259 191 171 
1217 157 137 57 241 
1218 293 157 292 145 
1219 318 217 333 341 
1220 297 122 221 36 
1221 323 118 107 129 
1222 297 116 122 132 
1223 109 44 245 272 
1224 109 255 245 45 
1225 109 135 44 272 
1226 46 239 47 106 
1227 282 87 74 85 
1228 227 102 237 18 
1229 347 332 302 291 
1230 239 246 47 106 
1231 274 262 154 257 
1232 283 227 210 232 
1233 157 57 260 241 
1234 332 113 117 115 
1235 144 124 33 32 
1236 303 299 278 282 
1237 307 290 339 314 
1238 278 22 173 69 
1239 331 296 330 320 
1240 281 79 81 83 
1241 72 261 27 240 
1242 340 264 266 240 
1243 298 65 176 244 
1244 103 276 174 190 
1245 338 327 285 336 
1246 346 299 304 305 
1247 295 89 99 76 
1248 318 341 333 330 
1249 283 102 227 91 
1250 175 19 202 74 
1251 87 175 20 196 
1252 316 205 297 214 
1253 316 136 125 235 
1254 121 40 177 190 
1255 318 344 343 294 
1256 284 155 160 228 
1257 277 316 192 187 
1258 227 91 102 18 
1259 335 286 285 336 
1260 227 91 17 71 
1261 227 17 91 18 
1262 318 335 308 305 
1263 329 308 184 183 
1264 333 233 208 213 
1265 287 209 231 228 
1266 287 73 286 95 
1267 303 282 278 195 
1268 341 328 217 216 
1269 20 19 175 74 
1270 87 175 74 20 
1271 302 309 275 276 
1272 273 96 274 90 
1273 321 312 275 246 
1274 279 80 317 82 
1275 209 15 14 92 
1276 209 92 14 236 
1277 88 209 92 15 
1278 287 73 95 92 
1279 313 252 254 265 
1280 125 212 37 105 
1281 319 190 121 177 
1282 275 201 259 269 
1283 320 114 119 112 
1284 203 108 136 39 
1285 283 194 188 222 
1286 282 175 87 196 
1287 206 227 17 71 
1288 332 131 113 111 
1289 287 236 160 168 
1290 316 225 212 213 
1291 316 136 235 203 
1292 283 318 329 344 
1293 108 177 121 40 
1294 316 235 225 203 
1295 316 225 192 203 
1296 142 30 29 107 
1297 320 112 121 103 
1298 53 169 238 159 
1299 53 169 5 238 
1300 311 182 276 180 
1301 319 108 316 177 
1302 283 219 232 222 
1303 261 271 99 28 
1304 281 94 279 280 
1305 293 109 135 124 
1306 306 340 264 266 
1307 315 127 140 156 
1308 274 270 262 243 
1309 264 313 301 251 
1310 273 25 75 243 
1311 31 104 140 32 
1312 295 244 266 256 
1313 298 309 278 198 
1314 280 164 342 274 
1315 54 2 270 170 
1316 334 327 328 324 
1317 137 57 241 56 
1318 46 45 255 120 
1319 316 205 212 105 
1320 296 316 119 132 
1321 316 213 205 214 
1322 208 192 225 62 
1323 316 212 225 235 
1324 318 335 341 334 
1325 341 316 297 214 
1326 318 344 335 305 
1327 288 142 134 107 
1328 67 242 171 259 
1329 288 289 207 138 
1330 293 104 130 124 
1331 288 138 159 153 
1332 288 238 169 159 
1333 315 146 140 145 
1334 63 203 225 235 
1335 63 235 7 203 
1336 326 148 146 147 
1337 274 101 158 170 
1338 318 329 344 305 
1339 326 307 310 327 
1340 322 296 325 115 
1341 293 144 157 145 
1342 326 338 307 327 
1343 325 128 315 118 
1344 133 8 201 269 
1345 321 247 312 246 
1346 278 173 22 193 
1347 344 317 343 294 
1348 309 275 179 199 
1349 340 240 254 264 
1350 27 261 89 28 
1351 312 111 275 123 
1352 293 140 144 145 
1353 322 288 324 297 
1354 248 345 258 291 
1355 290 301 251 250 
1356 241 157 314 260 
1357 16 71 88 229 
1358 16 229 88 15 
1359 93 70 11 162 
1360 295 278 77 76 
1361 93 10 162 11 
1362 66 256 65 189 
1363 273 25 243 263 
1364 293 140 104 32 
1365 127 30 31 156 
1366 43 133 8 201 
1367 66 171 242 189 
1368 66 171 67 242 
1369 264 313 340 301 
1370 346 336 338 342 
1371 340 263 72 86 
1372 326 310 307 147 
1373 325 115 128 118 
1374 283 222 232 210 
1375 318 334 341 330 
1376 341 214 297 224 
1377 277 208 192 225 
1378 316 297 105 132 
1379 48 133 269 8 
1380 143 262 54 55 
1381 143 154 262 55 
1382 197 282 329 186 
1383 300 249 250 248 
1384 287 209 228 236 
1385 64 204 244 271 
1386 64 271 4 204 
1387 326 146 148 153 
1388 109 245 44 45 
1389 295 271 204 99 
1390 22 193 23 76 
1391 72 263 26 86 
1392 293 245 260 272 
1393 72 240 27 26 
1394 50 160 228 49 
1395 58 167 157 272 
1396 58 6 167 272 
1397 316 108 136 203 
1398 343 85 91 71 
1399 283 202 175 194 
1400 287 92 209 236 
1401 321 242 267 247 
1402 287 228 160 236 
1403 328 218 234 223 
1404 279 344 335 317 
1405 284 220 231 209 
1406 289 155 166 150 
1407 284 209 229 220 
1408 289 138 166 155 
1409 333 219 233 215 
1410 207 328 223 289 
1411 207 328 234 223 
1412 296 320 316 330 
1413 345 245 292 109 
1414 325 324 326 327 
1415 84 93 286 337 
1416 248 345 255 258 
1417 293 167 135 272 
1418 345 131 332 312 
1419 293 130 109 124 
1420 341 217 215 216 
1421 337 285 286 336 
1422 326 147 307 149 
1423 326 289 324 153 
1424 324 224 297 288 
1425 322 315 323 118 
1426 322 324 325 334 
1427 324 288 323 153 
1428 324 289 288 153 
1429 313 338 339 342 
1430 329 184 188 197 
1431 341 215 214 216 
1432 328 224 324 207 
1433 296 119 114 132 
1434 326 323 146 153 
1435 296 297 316 132 
1436 320 114 112 113 
1437 275 269 259 246 
1438 309 179 275 276 
1439 313 265 274 257 
1440 320 112 111 113 
1441 320 112 103 111 
1442 312 120 131 106 
1443 311 277 319 316 
1444 316 177 108 203 
1445 311 182 180 187 
1446 277 208 233 222 
1447 277 222 188 61 
1448 277 222 61 208 
1449 277 188 184 200 
1450 295 99 193 76 
1451 295 77 304 340 
1452 300 248 312 247 
1453 275 103 174 178 
1454 345 128 325 117 
1455 306 266 253 256 
1456 303 301 306 304 
1457 282 186 173 195 
1458 346 281 336 342 
1459 281 97 299 79 
1460 345 312 248 255 
1461 230 318 294 217 
1462 284 287 231 228 
1463 321 259 242 247 
1464 333 233 277 208 
1465 295 193 176 198 
1466 295 278 193 198 
1467 309 179 276 181 
1468 299 278 78 77 
1469 299 305 344 282 
1470 279 280 337 336 
1471 280 84 70 94 
1472 299 80 279 81 
1473 303 278 309 195 
1474 318 308 329 305 
1475 302 308 309 276 
1476 295 89 261 99 
1477 295 261 271 99 
1478 295 244 204 271 
1479 295 244 261 266 
1480 295 271 261 244 
1481 276 181 180 182 
1482 276 180 179 174 
1483 312 123 275 246 
1484 345 325 332 117 
1485 303 278 299 304 
1486 309 276 308 181 
1487 276 181 179 180 
1488 315 127 323 118 
1489 332 312 131 111 
1490 321 306 298 309 
1491 322 325 315 118 
1492 319 320 316 119 
1493 298 295 266 256 
1494 326 315 146 323 
1495 312 239 247 248 
1496 303 298 309 278 
1497 345 128 117 130 
1498 315 104 127 118 
1499 325 323 326 324 
1500 322 116 115 118 
1501 128 293 130 345 
1502 293 292 157 260 
1503 315 104 118 128 
1504 339 151 307 165 
1505 313 251 290 301 
1506 274 265 262 257 
1507 313 342 339 274 
1508 347 308 331 330 
1509 280 274 342 90 
1510 273 86 75 25 
1511 313 252 265 257 
1512 273 243 254 263 
1513 273 96 86 83 
1514 281 81 299 279 
1515 281 86 97 83 
1516 281 280 279 336 
1517 337 279 286 84 
1518 337 93 286 162 
1519 273 340 86 263 
1520 273 254 340 263 
1521 284 218 328 223 
1522 280 161 164 139 
1523 343 230 294 220 
1524 279 94 81 84 
1525 287 337 286 162 
1526 307 310 292 145 
1527 285 148 149 150 
1528 326 146 310 147 
1529 345 293 130 109 
1530 347 336 335 327 
1531 84 93 337 280 
1532 329 283 344 282 
1533 335 285 328 327 
1534 343 91 283 227 
1535 337 162 152 139 
1536 280 70 93 162 
1537 337 280 93 162 
1538 280 342 96 90 
1539 280 96 70 90 
1540 280 158 90 139 
1541 280 70 162 139 
1542 280 70 139 90 
1543 285 150 289 166 
1544 285 150 166 148 
1545 284 289 285 163 
1546 284 287 317 209 
1547 160 284 287 163 
1548 337 152 162 141 
1549 337 280 162 139 
1550 343 91 227 71 
1551 285 289 150 163 
1552 337 285 150 163 
1553 337 150 152 163 
1554 337 161 280 139 
1555 337 152 161 139 
1556 337 285 149 150 
1557 337 149 152 150 
1558 337 161 152 149 
1559 279 81 80 82 
1560 337 279 84 280 
1561 279 95 286 84 
1562 279 95 84 82 
1563 335 305 279 336 
1564 279 81 82 84 
1565 284 223 289 155 
1566 294 217 218 220 
1567 294 220 230 217 
1568 341 330 334 297 
1569 321 298 242 171 
1570 333 208 277 316 
1571 328 218 294 217 
1572 328 218 217 216 
1573 328 207 324 289 
1574 321 302 309 275 
1575 318 330 329 308 
1576 328 234 216 224 
1577 328 234 218 216 
1578 328 324 285 289 
1579 334 330 296 297 
1580 331 308 276 320 
1581 343 219 230 232 
1582 318 329 219 283 
1583 320 308 276 311 
1584 319 119 108 121 
1585 311 200 182 187 
1586 347 331 335 330 
1587 300 248 247 249 
1588 296 114 320 113 
1589 296 114 113 115 
1590 296 114 115 116 
1591 322 288 297 129 
1592 332 113 320 111 
1593 309 278 198 195 
1594 331 332 296 320 
1595 322 115 325 118 
1596 318 343 219 230 
1597 341 217 328 294 
1598 333 208 316 213 
1599 341 328 335 294 
1600 341 328 334 335 
1601 321 267 242 256 
1602 298 199 309 185 
1603 333 217 219 215 
1604 319 316 192 177 
1605 319 192 187 177 
1606 319 180 276 190 
1607 319 180 190 187 
1608 319 190 177 187 
1609 319 190 276 320 
1610 347 302 303 301 
1611 309 185 199 181 
1612 306 256 253 267 
1613 321 302 306 309 
1614 347 291 302 301 
1615 321 242 259 171 
1616 343 232 206 227 
1617 343 227 206 71 
1618 321 242 298 256 
1619 343 71 317 98 
1620 344 98 80 85 
1621 318 333 217 219 
1622 343 294 317 220 
1623 343 317 206 220 
1624 343 206 317 71 
1625 344 74 282 283 
1626 344 282 74 85 
1627 344 74 283 85 
1628 98 344 343 85 
1629 344 283 343 85 
1630 303 304 298 278 
1631 299 78 79 77 
1632 346 304 281 340 
1633 299 78 344 80 
1634 321 298 267 256 
1635 299 79 78 80 
1636 306 266 298 295 
1637 281 342 280 336 
1638 281 86 340 72 
1639 347 301 338 291 
1640 306 303 304 298 
1641 321 275 259 246 
1642 300 290 291 250 
1643 251 300 253 249 
1644 298 185 309 198 
1645 298 185 198 189 
1646 321 259 247 246 
1647 298 242 171 189 
1648 298 295 256 244 
1649 298 176 295 244 
1650 298 198 295 176 
1651 298 198 176 189 
1652 298 176 65 189 
1653 298 65 256 189 
1654 298 256 242 189 
1655 325 291 310 292 
1656 325 310 291 327 
1657 300 301 290 250 
1658 345 255 109 120 
1659 325 334 324 327 
1660 332 296 320 113 
1661 345 258 292 245 
1662 307 145 314 165 
1663 300 321 312 275 
1664 320 302 332 275 
1665 253 301 251 264 
1666 300 302 321 275 
1667 345 332 131 117 
1668 322 315 325 323 
1669 293 140 315 104 
1670 293 144 140 32 
1671 293 124 144 32 
1672 293 167 157 144 
1673 293 135 167 124 
1674 339 151 161 149 
1675 128 293 345 315 
1676 293 167 144 124 
1677 310 293 292 145 
1678 310 315 293 145 
1679 339 337 338 307 
1680 326 307 337 149 
1681 310 146 315 145 
1682 310 147 146 145 
1683 321 298 306 267 
1684 313 254 273 265 
1685 347 303 302 308 
1686 307 151 147 165 
1687 339 338 337 342 
1688 339 342 337 280 
1689 339 280 337 161 
1690 339 280 161 164 
1691 339 307 314 165 
1692 339 337 307 149 
1693 338 336 337 342 
1694 339 164 161 151 
1695 313 338 290 339 
1696 281 96 342 273 
1697 281 96 273 83 
1698 281 299 340 304 
1699 281 299 77 340 
1700 300 312 302 275 
1701 338 310 307 327 
1702 338 291 310 327 
1703 346 299 281 304 
1704 346 342 313 281 
1705 346 281 313 301 
1706 347 291 338 327 
1707 346 301 304 340 
1708 332 347 331 327 
1709 284 289 328 285 
1710 284 285 328 286 
1711 284 294 317 286 
1712 284 317 287 286 
1713 284 286 328 294 
1714 339 274 164 154 
1715 339 164 151 154 
1716 290 307 292 314 
1717 339 274 342 164 
1718 345 245 109 255 
1719 326 324 323 153 
1720 326 289 285 324 
1721 326 285 289 166 
1722 326 148 166 153 
1723 345 315 325 128 
1724 326 324 285 327 
1725 326 148 285 166 
1726 325 296 332 115 
1727 325 310 315 292 
1728 345 332 291 312 
1729 345 312 255 120 
1730 345 131 312 120 
1731 345 117 131 120 
1732 345 109 130 120 
1733 345 291 325 292 
1734 345 130 117 120 
1735 322 129 297 116 
1736 322 118 323 129 
1737 322 116 118 129 
1738 322 323 325 324 
1739 322 297 296 116 
1740 333 316 277 330 
1741 347 303 305 304 
1742 331 332 325 296 
1743 300 302 312 332 
1744 302 312 332 275 
1745 346 305 335 336 
1746 301 306 340 264 
1747 300 291 302 332 
1748 331 296 334 330 
1749 331 327 325 332 
1750 331 325 327 334 
1751 331 330 334 335 
1752 331 335 334 327 
1753 331 330 308 320 
1754 347 338 336 327 
1755 311 181 276 182 
1756 346 335 347 336 
1757 311 184 308 183 
1758 311 182 184 183 
1759 311 200 277 184 
1760 311 200 184 182 
1761 318 294 343 230 
1762 311 319 277 187 
1763 329 330 311 308 
1764 329 219 283 277 
1765 277 318 330 329 
1766 329 311 277 184 
1767 329 308 311 184 
1768 329 277 283 188 
1769 329 184 277 188 
1770 306 303 298 309 
1771 306 295 298 304 
1772 306 340 295 304 
1773 303 302 306 301 
1774 306 304 301 340 
1775 303 305 299 282 
1776 303 344 329 305 
1777 303 329 344 282 
1778 303 344 305 282 
1779 303 308 329 183 
1780 303 309 308 183 
1781 347 301 303 304 
1782 303 309 302 308 
1783 303 305 329 308 
1784 346 279 281 299 
1785 346 336 279 305 
1786 346 281 279 336 
1787 347 335 331 327 
1788 347 305 308 335 
1789 290 251 252 250 
1790 290 252 268 250 
1791 290 314 258 268 
1792 290 257 314 268 
1793 290 252 257 268 
1794 290 291 338 301 
1795 313 301 281 340 
1796 313 340 281 273 
1797 313 273 342 274 
1798 313 301 290 338 
1799 346 301 313 338 
1800 346 338 313 342 
1801 313 281 342 273 
1802 346 301 347 304 
1803 346 338 347 301 
1804 346 347 338 336 
1805 346 305 347 335 
$EndElements
